<svg xmlns="http://www.w3.org/2000/svg" xmlns:xlink="http://www.w3.org/1999/xlink" width="500" zoomAndPan="magnify" viewBox="0 0 375 374.999991" height="500" preserveAspectRatio="xMidYMid meet" version="1.0"><defs><clipPath id="id1"><path d="M 51.320312 0.0820312 L 313.917969 0.0820312 L 313.917969 374.917969 L 51.320312 374.917969 Z M 51.320312 0.0820312 " clip-rule="nonzero"/></clipPath><clipPath id="id2"><path d="M 40.78125 89 L 61 89 L 61 105 L 40.78125 105 Z M 40.78125 89 " clip-rule="nonzero"/></clipPath><clipPath id="id3"><path d="M 315.804688 95.328125 L 334.03125 95.328125 L 334.03125 116.867188 L 315.804688 116.867188 Z M 315.804688 95.328125 " clip-rule="nonzero"/></clipPath></defs><g clip-path="url(#id1)"><path fill="#000000" d="M 149.734375 351.828125 C 152.613281 351.824219 157.730469 349.824219 158.234375 352.988281 C 157.363281 355.335938 153.132812 354.328125 150.121094 354.535156 C 151.046875 359.667969 152 364.769531 153.597656 369.226562 C 155.460938 369.9375 158.488281 369.488281 160.941406 369.613281 C 161.300781 366.621094 162.910156 364.882812 162.871094 361.492188 C 161.496094 361.566406 157.578125 362.945312 157.460938 360.71875 C 157.53125 358.085938 161.21875 359.066406 163.644531 358.789062 C 164.683594 355.1875 164.5625 350.425781 165.574219 346.804688 C 159.710938 347.003906 154.410156 346.632812 149.347656 346.03125 C 149.230469 348.210938 150.035156 349.46875 149.734375 351.828125 Z M 205.757812 339.070312 C 205.714844 341.175781 205.871094 343.082031 206.527344 344.484375 C 207.601562 343.4375 212.328125 342.953125 212.324219 345.257812 C 211.28125 346.65625 208.636719 346.460938 206.144531 346.414062 C 206.636719 350.949219 207.3125 355.296875 208.074219 359.558594 C 211.039062 359.558594 214 359.558594 216.960938 359.558594 C 218.382812 357.757812 218.964844 355.121094 218.894531 351.828125 C 217.011719 351.394531 213.203125 352.882812 213.097656 350.667969 C 213.113281 348.152344 217.582031 348.308594 219.28125 348.734375 C 219.195312 345.003906 221.101562 339.269531 219.28125 336.363281 C 214.914062 337.40625 209.992188 337.894531 205.757812 339.070312 Z M 70.53125 301.957031 C 71.8125 305.703125 74.128906 308.410156 75.941406 311.621094 C 82.039062 308.921875 88.921875 313.289062 88.304688 318.195312 C 87.875 321.613281 84.070312 321.027344 82.121094 323.605469 C 84.679688 325.6875 85.898438 329.105469 89.078125 330.566406 C 95.152344 329.300781 96.765625 323.570312 97.191406 316.648438 C 93.195312 311.753906 89.367188 306.691406 87.917969 299.25 C 81.652344 298.195312 74.625 299.566406 70.53125 301.957031 Z M 147.03125 281.851562 C 144.890625 289.761719 136.007812 294.121094 131.574219 298.863281 C 133.351562 311.390625 132.511719 326.535156 134.28125 339.070312 C 142.414062 340.339844 150.132812 342.023438 158.234375 343.324219 C 157.652344 315.410156 155.945312 285.316406 155.53125 255.949219 C 150.082031 256.890625 146.253906 254.15625 142.007812 255.175781 C 146.03125 261.367188 149.621094 272.285156 147.03125 281.851562 Z M 119.984375 302.730469 C 127.136719 297.753906 134.46875 293.160156 139.304688 287.652344 C 144.769531 281.421875 144.976562 264.808594 139.691406 257.496094 C 138.496094 255.84375 134.988281 253.382812 131.964844 254.019531 C 130.414062 260.460938 124.011719 262.042969 121.53125 267.550781 C 124.898438 273.351562 131.027344 280.441406 130.03125 288.039062 C 126.332031 287.09375 125.714844 282.476562 124.234375 279.535156 C 122.59375 276.265625 120.804688 273.136719 119.210938 270.253906 C 115.421875 274.835938 111.03125 278.820312 106.847656 283.011719 C 108.199219 288.148438 114.257812 292.554688 112.644531 298.089844 C 108.09375 295.816406 106.589844 290.488281 104.917969 285.332031 C 101.585938 288.367188 92.257812 292.128906 91.394531 296.929688 C 90.160156 303.824219 96.859375 309.066406 99.894531 313.941406 C 108.515625 312.257812 112.929688 307.636719 119.984375 302.730469 Z M 238.210938 271.414062 C 242.621094 270.722656 246.742188 273.324219 251.734375 273.734375 C 263.769531 274.722656 276.882812 271.476562 286.507812 269.097656 C 285.558594 265.46875 286.820312 262.019531 286.507812 257.882812 C 282.925781 256.183594 280.011719 253.816406 275.300781 253.246094 C 274.238281 257.976562 274.992188 264.535156 271.4375 266.777344 C 268.621094 263.117188 272.246094 257.082031 272.597656 252.859375 C 267.265625 251.492188 261.527344 250.535156 255.210938 250.152344 C 254.550781 253.304688 252.566406 257.246094 252.890625 260.976562 C 253.042969 262.675781 254.398438 263.269531 253.667969 264.84375 C 246.070312 265.765625 250.226562 253.609375 252.121094 249.765625 C 247.648438 249.085938 242.105469 249.480469 237.050781 249.378906 C 237.421875 256.742188 237.59375 264.300781 238.210938 271.414062 Z M 289.597656 256.335938 C 288.15625 261.597656 290.773438 268.097656 289.597656 273.734375 C 291.730469 279.09375 297.90625 284.03125 305.824219 281.082031 C 306.714844 278.234375 306.894531 274.679688 306.984375 271.027344 C 296.738281 271.75 300.324219 258.296875 308.140625 259.042969 C 308.492188 254.882812 308.632812 250.511719 308.53125 245.898438 C 300.65625 245.386719 290.71875 252.25 289.597656 256.335938 Z M 171.757812 254.019531 C 172.675781 280.035156 174.4375 305.203125 176.78125 329.792969 C 183.054688 332.035156 190.496094 330.84375 195.710938 329.40625 C 205.8125 326.617188 215.808594 323.085938 224.300781 319.742188 C 222.367188 294.375 224.039062 267.484375 220.824219 243.195312 C 204.941406 247.273438 188.605469 250.902344 171.757812 254.019531 Z M 223.53125 242.417969 C 224.957031 268.050781 225.882812 294.191406 227.007812 320.128906 C 225.964844 320.632812 225.160156 321.371094 225.074219 322.832031 C 220.355469 324.597656 214.28125 327.273438 207.6875 329.019531 C 201.21875 330.730469 194.339844 333.101562 188.371094 333.65625 C 184.78125 333.992188 180.28125 334.453125 177.167969 333.269531 C 171.75 331.21875 172.539062 319.019531 172.144531 311.621094 C 171.09375 291.839844 168.980469 273.386719 169.824219 254.40625 C 166.441406 255.273438 161.65625 254.734375 158.621094 255.949219 C 160.449219 283.476562 161.800781 316.4375 160.167969 343.710938 C 168.226562 342.113281 175.679688 340.929688 184.121094 339.457031 C 189.363281 338.542969 194.707031 336.957031 199.960938 335.980469 C 210.785156 333.964844 221.90625 332.902344 230.097656 327.472656 C 234.664062 311.8125 233.71875 291.375 233.574219 272.1875 C 233.496094 261.738281 233.308594 251.097656 232.417969 241.261719 C 232.394531 241.023438 232.359375 240.800781 232.027344 240.875 C 229.414062 241.605469 226.628906 242.171875 223.53125 242.417969 Z M 57.007812 185.976562 C 57.609375 193.773438 61.390625 210.351562 68.988281 209.945312 C 71.144531 209.828125 74.617188 206.382812 75.554688 203.757812 C 78.898438 194.382812 75.980469 181.832031 73.621094 173.605469 C 71.464844 166.078125 70.113281 159.167969 62.417969 159.6875 C 57.300781 165.003906 56.132812 174.566406 57.007812 185.976562 Z M 96.417969 164.710938 C 93.609375 158.214844 87.660156 149.613281 82.894531 149.636719 C 77.699219 149.65625 73.292969 154.925781 68.601562 156.59375 C 69.988281 157.21875 71.808594 158.210938 72.851562 159.6875 C 78.222656 167.304688 83.621094 193.179688 79.03125 206.078125 C 78.207031 208.390625 74.339844 210.726562 75.167969 211.878906 C 80.507812 212.976562 85.265625 214.660156 91.007812 215.359375 C 104.867188 206.34375 103.15625 180.308594 96.417969 164.710938 Z M 291.527344 168.191406 C 301.464844 161.734375 293.078125 137.445312 291.914062 125.667969 C 290.328125 124.546875 288.8125 123.355469 286.894531 122.574219 C 289.914062 136.304688 291.277344 151.691406 291.527344 168.191406 Z M 75.941406 110.199219 C 66.542969 111.332031 66.269531 117.75 66.667969 127.210938 C 67.011719 135.359375 66.8125 143.988281 67.441406 152.339844 C 73.222656 150.917969 77.457031 145.152344 83.667969 145.382812 C 89.871094 145.613281 96.96875 155.484375 100.28125 163.167969 C 107.273438 179.375 108.132812 202.160156 98.734375 214.199219 C 92.824219 221.769531 85.464844 219 75.554688 216.132812 C 75.648438 221.707031 76.507812 226.515625 77.097656 231.59375 C 94.742188 242.679688 117.105469 249.039062 144.324219 250.539062 C 147.839844 226.027344 146.460938 196.265625 143.554688 170.898438 C 141.183594 150.234375 138.59375 130.5 131.191406 115.613281 C 114.886719 114.34375 93.777344 108.058594 75.941406 110.199219 Z M 253.28125 81.59375 C 233.511719 79.25 213.1875 79.488281 193.007812 81.207031 C 198.554688 95.355469 178.710938 99.253906 163.257812 98.21875 C 158.351562 97.886719 149.597656 97.433594 148.578125 93.964844 C 147.558594 90.5 151.5 86.75 150.894531 85.074219 C 122.324219 88.960938 97.371094 96.464844 75.167969 106.722656 C 89.136719 104.789062 99.527344 107.382812 113.417969 108.65625 C 119.480469 109.210938 130.296875 109.675781 133.894531 112.523438 C 138.308594 116.011719 141.199219 131.148438 142.78125 138.035156 C 145.121094 148.226562 146.375 158.210938 147.417969 168.191406 C 149.816406 191.179688 152.023438 213.46875 150.507812 234.300781 C 150.0625 240.453125 147.132812 246.277344 148.191406 252.472656 C 173.398438 251.609375 195.339844 245.9375 216.960938 240.488281 C 238.785156 234.984375 260.484375 231.097656 281.097656 223.476562 C 286.921875 203.871094 288.742188 180.71875 287.28125 157.753906 C 285.675781 132.566406 280.480469 109.328125 273.371094 91.644531 C 274.074219 89.128906 277.648438 89.480469 277.621094 86.230469 C 271.546875 81.960938 262.355469 82.671875 253.28125 81.59375 Z M 162.097656 81.207031 C 167.199219 86.496094 160.195312 89.148438 158.621094 83.140625 C 155.773438 85.828125 152.695312 88.292969 151.667969 92.804688 C 164.75 94.335938 186.257812 96.566406 190.6875 85.847656 C 187.65625 76.671875 169.96875 74.875 162.097656 81.207031 Z M 126.554688 30.945312 C 131.367188 30.109375 131.554688 16.15625 123.460938 18.578125 C 116.960938 20.523438 120.527344 31.996094 126.554688 30.945312 Z M 203.054688 5.046875 C 201.351562 6.585938 201.695312 11.0625 202.667969 13.164062 C 212.390625 15.957031 211.726562 1.554688 203.054688 5.046875 Z M 186.824219 74.246094 C 187.589844 75.804688 189.59375 76.117188 190.304688 77.726562 C 197.996094 75.476562 210.410156 75.882812 221.210938 75.40625 C 234.777344 74.808594 251.441406 75.671875 267.1875 77.726562 C 273.097656 78.5 282.1875 80.488281 282.253906 86.617188 C 282.292969 89.949219 280.320312 90.496094 279.164062 92.804688 C 282.011719 100.78125 283.648438 109.96875 286.894531 117.546875 C 289.3125 119.136719 294.085938 120.082031 295.777344 122.960938 C 297.027344 125.078125 297.824219 131.105469 298.867188 136.492188 C 300.222656 143.453125 302.753906 156.929688 300.414062 164.710938 C 299.019531 169.355469 294.152344 171.765625 292.6875 174.378906 C 292.929688 189.578125 291.101562 205.90625 286.894531 218.449219 C 285.839844 221.585938 284.796875 226.613281 283.03125 228.113281 C 281.050781 229.796875 275.40625 231.167969 272.210938 231.980469 C 261.050781 234.824219 249.699219 239.011719 237.4375 240.875 C 237.546875 242.183594 238.054688 243.09375 237.824219 244.738281 C 254.355469 243.972656 273.964844 245.640625 286.121094 251.699219 C 289.792969 250.601562 293.371094 244.269531 298.484375 242.417969 C 301.941406 241.167969 308.203125 239.8125 311.234375 241.261719 C 316.25 243.65625 312.441406 255.839844 312.777344 261.75 C 311.570312 264.28125 307.175781 263.617188 305.4375 265.617188 C 307.84375 266.171875 311.015625 265.960938 312.003906 267.933594 C 312.222656 273.5625 311.40625 278.160156 310.847656 283.011719 C 303.027344 291.554688 285.8125 285.152344 284.960938 274.894531 C 271.765625 278.367188 251.683594 281.441406 238.984375 275.667969 C 235.914062 297.875 245.089844 330.6875 224.6875 335.980469 C 223.246094 344.457031 225.941406 360.957031 218.894531 363.8125 C 216.359375 364.839844 209.230469 365.546875 205.757812 363.8125 C 201.121094 361.496094 202.445312 347.589844 201.507812 341.003906 C 191.320312 343.183594 181.242188 345.464844 170.210938 346.804688 C 169.234375 351.710938 169.175781 356.707031 167.894531 362.265625 C 166.996094 366.164062 165.378906 373.046875 162.484375 374.25 C 159.355469 375.550781 153.433594 374.761719 151.28125 373.476562 C 146.652344 370.71875 145.652344 355.09375 145.097656 346.414062 C 140.175781 343.707031 131.835938 346.03125 129.644531 341.003906 C 128.679688 338.789062 128.800781 333.710938 128.484375 329.792969 C 127.800781 321.226562 127.71875 312.167969 127.710938 303.503906 C 118.449219 307.636719 113.375 315.957031 102.214844 318.195312 C 100.980469 324.402344 99.8125 330.324219 95.257812 333.269531 C 93.503906 334.40625 89.691406 336.027344 87.144531 335.589844 C 85.019531 335.226562 82.429688 331.496094 80.964844 329.792969 C 79.371094 327.9375 76.316406 324.804688 76.714844 322.058594 C 77.207031 318.65625 80.847656 319.515625 82.894531 317.035156 C 80.355469 313.324219 78.160156 317.589844 74.394531 316.648438 C 71.710938 315.976562 65.144531 304.527344 65.507812 301.570312 C 66.179688 296.148438 77.882812 293.8125 86.371094 294.613281 C 91.582031 288.484375 99.472656 283.378906 105.691406 277.601562 C 113.257812 270.5625 119.390625 262.019531 127.328125 254.792969 C 113.597656 252.382812 96.589844 247.257812 84.054688 241.261719 C 80.277344 239.453125 74.523438 237.386719 72.851562 233.914062 C 70.441406 228.917969 72.035156 222.96875 70.917969 216.132812 C 47.714844 213.507812 45.09375 163.507812 63.191406 153.113281 C 63.238281 142.246094 60.179688 129.945312 61.257812 119.480469 C 62.003906 112.273438 67.902344 109.824219 69.757812 104.402344 C 93.960938 92.277344 122.523438 82.460938 155.144531 80.046875 C 151.4375 72.691406 145.464844 66.066406 140.847656 58.398438 C 136.273438 50.800781 132.039062 42.882812 127.328125 35.585938 C 115.308594 37.238281 111.910156 18.855469 121.144531 14.710938 C 127.671875 14.308594 131.84375 16.582031 133.507812 21.671875 C 134.671875 25.226562 132.53125 29.21875 133.121094 32.496094 C 133.652344 35.425781 137.523438 40.132812 139.691406 43.707031 C 146.5 54.933594 153.351562 66.164062 160.554688 75.792969 C 165.5625 73.042969 173.710938 71.476562 181.417969 72.703125 C 184.726562 57.769531 188.929688 43.640625 194.554688 30.175781 C 196.292969 26.007812 198.972656 19.753906 198.804688 15.871094 C 198.671875 12.859375 195.992188 9.53125 197.257812 5.820312 C 199.367188 -2.230469 212.816406 -1.539062 214.644531 6.207031 C 216.625 14.605469 209.214844 16.9375 204.210938 20.121094 C 198.589844 38.339844 191.476562 55.0625 186.824219 74.246094 " fill-opacity="1" fill-rule="evenodd"/></g><path fill="#fff18d" d="M 202.667969 13.164062 C 201.695312 11.0625 201.351562 6.585938 203.054688 5.042969 C 211.726562 1.554688 212.390625 15.953125 202.667969 13.164062 " fill-opacity="1" fill-rule="evenodd"/><path fill="#fff18d" d="M 123.460938 18.574219 C 131.554688 16.15625 131.371094 30.109375 126.554688 30.949219 C 120.53125 31.996094 116.960938 20.519531 123.460938 18.574219 " fill-opacity="1" fill-rule="evenodd"/><path fill="#000000" d="M 301.574219 41 C 299.175781 44.398438 296.929688 47.949219 295.003906 51.824219 C 299.265625 51.1875 302.214844 49.246094 306.984375 49.117188 C 305.824219 45.765625 304.632812 42.449219 301.574219 41 Z M 303.890625 36.363281 C 307.859375 40.121094 311.824219 43.886719 312.007812 51.4375 C 310.203125 53.929688 306.273438 53.640625 302.734375 54.53125 C 298.804688 55.515625 289.453125 60.746094 288.050781 56.078125 C 287.332031 53.679688 291.203125 49.269531 293.074219 46.027344 C 296 40.957031 297.191406 35.828125 303.890625 36.363281 " fill-opacity="1" fill-rule="evenodd"/><path fill="#fff18d" d="M 306.984375 49.117188 C 302.21875 49.242188 299.265625 51.1875 295.007812 51.824219 C 296.929688 47.949219 299.179688 44.398438 301.574219 41 C 304.636719 42.449219 305.824219 45.765625 306.984375 49.117188 " fill-opacity="1" fill-rule="evenodd"/><path fill="#000000" d="M 68.214844 67.289062 C 70.269531 69.613281 73.292969 70.96875 76.328125 72.316406 C 74.664062 69.292969 70.804688 60.230469 68.214844 67.289062 Z M 80.578125 77.726562 C 76.082031 76.253906 63.621094 72.820312 64.738281 65.742188 C 65.203125 62.789062 68.664062 60.355469 70.917969 60.328125 C 74.441406 60.285156 76.539062 65.441406 79.03125 68.835938 C 80.882812 71.351562 84.160156 74.042969 80.578125 77.726562 " fill-opacity="1" fill-rule="evenodd"/><path fill="#fff18d" d="M 76.328125 72.316406 C 73.292969 70.96875 70.269531 69.613281 68.214844 67.289062 C 70.804688 60.230469 74.664062 69.292969 76.328125 72.316406 " fill-opacity="1" fill-rule="evenodd"/><path fill="#e4e8f4" d="M 190.6875 85.84375 C 186.257812 96.566406 164.75 94.335938 151.667969 92.804688 C 152.695312 88.292969 155.773438 85.828125 158.621094 83.140625 C 160.195312 89.148438 167.199219 86.496094 162.097656 81.207031 C 169.96875 74.875 187.65625 76.675781 190.6875 85.84375 " fill-opacity="1" fill-rule="evenodd"/><path fill="#dddddd" d="M 199.578125 230.820312 C 199.039062 232.046875 199.039062 234.234375 199.578125 235.460938 C 200.730469 236.542969 204.21875 236.542969 205.371094 235.460938 C 205.769531 234.441406 205.832031 233.089844 205.757812 231.59375 C 204.554688 229.808594 201.777344 229.917969 199.578125 230.820312 Z M 246.710938 226.570312 C 252.570312 229.246094 255.777344 221.707031 251.734375 218.835938 C 247.210938 218.40625 245.53125 222.542969 246.710938 226.570312 Z M 165.191406 213.8125 C 176.605469 213.621094 189.914062 213.3125 189.144531 202.210938 C 179.808594 197.8125 154.050781 205.679688 165.191406 213.8125 Z M 235.507812 193.707031 C 231.277344 195.507812 222.660156 195.777344 222.757812 200.28125 C 228.632812 201.246094 238.578125 199.976562 241.6875 195.640625 C 240.90625 194.605469 236.945312 193.097656 235.507812 193.707031 Z M 264.871094 188.683594 C 265.691406 198.511719 290.171875 188.355469 279.167969 180.5625 C 273.355469 181.601562 264.347656 182.414062 264.871094 188.683594 Z M 182.578125 148.089844 C 173.300781 156.21875 168.558594 178.5625 179.484375 188.296875 C 183.464844 191.839844 188.132812 192.746094 194.167969 191 C 196.402344 190.355469 199.125 190.121094 200.734375 189.453125 C 211.449219 185.023438 217.839844 159.515625 208.460938 150.019531 C 205.046875 146.5625 196.878906 144.617188 189.53125 145.382812 C 186.261719 145.722656 184.578125 146.332031 182.578125 148.089844 Z M 251.347656 136.488281 C 243.839844 143.84375 242.59375 165.617188 250.574219 173.605469 C 253.234375 176.261719 260.464844 178.621094 264.871094 176.695312 C 265.75 176.3125 266.378906 174.453125 267.574219 173.605469 C 269.132812 172.5 271.097656 172.570312 272.210938 171.671875 C 278.355469 166.722656 282.359375 146.964844 277.234375 138.808594 C 274.742188 134.84375 266.09375 132.207031 259.074219 133.398438 C 256.519531 133.832031 253.179688 134.695312 251.347656 136.488281 Z M 151.667969 123.730469 C 151.167969 127.011719 151.238281 131.824219 153.597656 133.398438 C 154.46875 130.964844 153.625 127.636719 152.828125 125.664062 C 154.929688 124.035156 159.742188 125.109375 160.554688 122.183594 C 158.492188 119.738281 153.675781 122.492188 151.667969 123.730469 Z M 139.304688 105.175781 C 136.320312 105.511719 132.1875 103.722656 130.804688 105.949219 C 134.207031 108.265625 143.199219 108.375 144.328125 104.015625 C 142.535156 103.621094 141.429688 104.933594 139.304688 105.175781 Z M 259.074219 102.082031 C 260.394531 102.785156 260.933594 102.03125 262.550781 102.082031 C 264.257812 104.5 262.417969 110.46875 266.03125 110.976562 C 267.148438 106.71875 265.894531 101.605469 263.710938 99.375 C 261.113281 99.222656 259.515625 100.074219 259.074219 102.082031 Z M 228.167969 92.804688 C 219.121094 94.585938 209.898438 97.082031 201.121094 98.601562 C 182.472656 101.835938 164.015625 105.003906 148.191406 111.359375 C 152.820312 111.859375 157.378906 110.210938 162.097656 109.425781 C 191.742188 104.488281 218.832031 98.128906 247.871094 93.578125 C 251.726562 92.972656 258.316406 93.023438 259.074219 87.777344 C 249.558594 88.621094 238.78125 90.714844 228.167969 92.804688 Z M 277.621094 86.230469 C 277.648438 89.480469 274.074219 89.125 273.371094 91.644531 C 280.480469 109.328125 285.675781 132.566406 287.277344 157.753906 C 288.742188 180.71875 286.921875 203.871094 281.097656 223.476562 C 260.484375 231.097656 238.785156 234.984375 216.960938 240.488281 C 195.339844 245.9375 173.398438 251.609375 148.191406 252.472656 C 147.132812 246.277344 150.0625 240.453125 150.507812 234.300781 C 152.023438 213.464844 149.816406 191.179688 147.417969 168.191406 C 146.375 158.210938 145.121094 148.226562 142.78125 138.035156 C 141.199219 131.148438 138.308594 116.011719 133.894531 112.519531 C 130.296875 109.675781 119.480469 109.210938 113.417969 108.65625 C 99.527344 107.382812 89.136719 104.789062 75.167969 106.722656 C 97.371094 96.464844 122.324219 88.960938 150.894531 85.070312 C 151.5 86.75 147.558594 90.5 148.578125 93.964844 C 149.597656 97.433594 158.351562 97.886719 163.257812 98.214844 C 178.710938 99.253906 198.554688 95.351562 193.007812 81.203125 C 213.1875 79.488281 233.511719 79.246094 253.28125 81.59375 C 262.355469 82.667969 271.546875 81.960938 277.621094 86.230469 " fill-opacity="1" fill-rule="evenodd"/><path fill="#000000" d="M 259.074219 87.777344 C 258.316406 93.023438 251.726562 92.972656 247.871094 93.578125 C 218.832031 98.128906 191.742188 104.492188 162.097656 109.429688 C 157.378906 110.214844 152.820312 111.863281 148.191406 111.363281 C 164.015625 105.003906 182.472656 101.835938 201.121094 98.605469 C 209.898438 97.082031 219.121094 94.585938 228.164062 92.804688 C 238.777344 90.714844 249.554688 88.621094 259.074219 87.777344 " fill-opacity="1" fill-rule="evenodd"/><g clip-path="url(#id2)"><path fill="#000000" d="M 46.191406 99.761719 C 48.203125 98.167969 51.132812 97.492188 53.144531 95.898438 C 51.277344 94.929688 49.320312 94.050781 46.964844 93.578125 C 47.480469 96.167969 45.421875 98.207031 46.191406 99.761719 Z M 42.328125 104.789062 C 41.976562 104.109375 41.464844 103.59375 40.78125 103.242188 C 42.050781 98.585938 41.839844 92.445312 44.644531 89.324219 C 50.988281 89.035156 52.867188 93.210938 58.941406 93.191406 C 64.351562 97.183594 57.265625 99.664062 52.757812 101.695312 C 48.847656 103.460938 45.578125 105.183594 42.328125 104.789062 " fill-opacity="1" fill-rule="evenodd"/></g><path fill="#fff18d" d="M 46.964844 93.578125 C 49.320312 94.054688 51.277344 94.929688 53.144531 95.894531 C 51.132812 97.492188 48.203125 98.167969 46.191406 99.761719 C 45.421875 98.207031 47.480469 96.164062 46.964844 93.578125 " fill-opacity="1" fill-rule="evenodd"/><g clip-path="url(#id3)"><path fill="#000000" d="M 321.28125 105.175781 C 322.703125 108.265625 326.253906 109.21875 329.007812 110.972656 C 329.234375 107.847656 328.539062 103.804688 329.394531 101.308594 C 326.433594 102.34375 323.847656 103.746094 321.28125 105.175781 Z M 334.03125 97.054688 C 332.378906 102.527344 336.230469 115.578125 331.324219 116.773438 C 328.410156 117.484375 324.238281 113.753906 322.4375 112.519531 C 320.46875 111.167969 316.113281 107.96875 315.871094 105.945312 C 315.265625 100.90625 325.816406 97.121094 329.78125 95.507812 C 331.207031 94.929688 332.972656 96.082031 334.03125 97.054688 " fill-opacity="1" fill-rule="evenodd"/></g><path fill="#8e8664" d="M 263.710938 99.375 C 265.894531 101.605469 267.148438 106.71875 266.027344 110.976562 C 262.417969 110.46875 264.257812 104.503906 262.550781 102.082031 C 260.929688 102.03125 260.394531 102.785156 259.074219 102.082031 C 259.515625 100.074219 261.113281 99.222656 263.710938 99.375 " fill-opacity="1" fill-rule="evenodd"/><path fill="#fff18d" d="M 329.394531 101.308594 C 328.539062 103.800781 329.234375 107.847656 329.007812 110.972656 C 326.253906 109.21875 322.703125 108.261719 321.28125 105.175781 C 323.847656 103.746094 326.433594 102.34375 329.394531 101.308594 " fill-opacity="1" fill-rule="evenodd"/><path fill="#8e8664" d="M 144.328125 104.015625 C 143.199219 108.375 134.207031 108.265625 130.804688 105.949219 C 132.1875 103.722656 136.320312 105.511719 139.304688 105.175781 C 141.429688 104.933594 142.535156 103.621094 144.328125 104.015625 " fill-opacity="1" fill-rule="evenodd"/><path fill="#c1bfb6" d="M 134.28125 239.328125 C 132.46875 238.96875 130.09375 237.476562 128.484375 238.167969 C 128.503906 238.699219 128.304688 239.015625 128.097656 239.328125 C 129.84375 240.933594 132.511719 241.613281 135.828125 241.644531 C 137.519531 239.617188 138.171875 234.875 137.757812 231.980469 C 134.050781 231.878906 135.464844 236.902344 134.28125 239.328125 Z M 116.121094 119.480469 C 118.277344 121.953125 121.355469 120.441406 123.464844 122.570312 C 126.609375 125.753906 123.816406 132.449219 128.097656 134.941406 C 128.855469 125.285156 126.207031 117.003906 116.121094 119.480469 Z M 131.191406 115.613281 C 138.59375 130.5 141.183594 150.234375 143.554688 170.894531 C 146.460938 196.261719 147.839844 226.023438 144.328125 250.539062 C 117.105469 249.039062 94.742188 242.679688 77.101562 231.59375 C 76.507812 226.515625 75.648438 221.703125 75.554688 216.128906 C 85.464844 219 92.824219 221.769531 98.734375 214.195312 C 108.132812 202.160156 107.273438 179.375 100.28125 163.164062 C 96.96875 155.484375 89.871094 145.613281 83.667969 145.378906 C 77.457031 145.152344 73.222656 150.917969 67.441406 152.339844 C 66.8125 143.988281 67.011719 135.359375 66.667969 127.210938 C 66.269531 117.75 66.542969 111.332031 75.941406 110.199219 C 93.777344 108.054688 114.886719 114.34375 131.191406 115.613281 " fill-opacity="1" fill-rule="evenodd"/><path fill="#8e8664" d="M 128.097656 134.945312 C 123.816406 132.449219 126.609375 125.753906 123.460938 122.570312 C 121.355469 120.441406 118.277344 121.953125 116.121094 119.480469 C 126.207031 117.003906 128.855469 125.285156 128.097656 134.945312 " fill-opacity="1" fill-rule="evenodd"/><path fill="#8e8664" d="M 160.554688 122.1875 C 159.742188 125.109375 154.929688 124.035156 152.828125 125.664062 C 153.625 127.636719 154.46875 130.96875 153.597656 133.398438 C 151.238281 131.828125 151.167969 127.015625 151.667969 123.730469 C 153.675781 122.492188 158.492188 119.738281 160.554688 122.1875 " fill-opacity="1" fill-rule="evenodd"/><path fill="#c6cde5" d="M 286.894531 122.570312 C 288.816406 123.355469 290.332031 124.546875 291.914062 125.664062 C 293.078125 137.441406 301.46875 161.730469 291.53125 168.191406 C 291.277344 151.691406 289.914062 136.304688 286.894531 122.570312 " fill-opacity="1" fill-rule="evenodd"/><path fill="#000000" d="M 261.394531 141.128906 C 254.4375 148.042969 254.25 166.1875 261.78125 169.351562 C 263.636719 170.132812 266.90625 170.164062 268.734375 169.351562 C 274.84375 166.640625 277.132812 148.40625 274.144531 140.742188 C 269.269531 136.585938 265.179688 137.363281 261.394531 141.128906 Z M 262.167969 173.21875 C 248.632812 169.589844 250.351562 141.867188 261.394531 136.875 C 244.078125 137.03125 243.394531 175.621094 262.167969 173.21875 Z M 259.074219 133.398438 C 266.09375 132.207031 274.742188 134.84375 277.234375 138.808594 C 282.359375 146.964844 278.355469 166.722656 272.214844 171.671875 C 271.097656 172.570312 269.132812 172.5 267.574219 173.605469 C 266.378906 174.453125 265.746094 176.316406 264.871094 176.695312 C 260.464844 178.621094 253.234375 176.261719 250.578125 173.605469 C 242.59375 165.617188 243.839844 143.84375 251.347656 136.488281 C 253.179688 134.695312 256.515625 133.832031 259.074219 133.398438 " fill-opacity="1" fill-rule="evenodd"/><path fill="#ffe000" d="M 261.394531 136.878906 C 250.351562 141.867188 248.632812 169.589844 262.164062 173.21875 C 243.394531 175.625 244.078125 137.03125 261.394531 136.878906 " fill-opacity="1" fill-rule="evenodd"/><path fill="#fff18d" d="M 274.144531 140.742188 C 277.128906 148.40625 274.839844 166.640625 268.734375 169.351562 C 266.90625 170.164062 263.636719 170.132812 261.78125 169.351562 C 254.25 166.1875 254.4375 148.042969 261.394531 141.128906 C 265.179688 137.363281 269.265625 136.589844 274.144531 140.742188 " fill-opacity="1" fill-rule="evenodd"/><path fill="#000000" d="M 189.53125 157.367188 C 186.535156 162.316406 183.820312 174.050781 186.054688 179.789062 C 187.082031 182.441406 191.644531 185.929688 194.554688 186.363281 C 211.292969 188.84375 214.34375 150.574219 199.191406 149.636719 C 198.839844 149.613281 198.863281 150.011719 198.804688 150.023438 C 195.804688 150.496094 191.191406 154.621094 189.53125 157.367188 Z M 187.597656 148.863281 C 180.503906 151.332031 173.652344 168.246094 177.167969 178.632812 C 178.996094 184.035156 183.464844 188.300781 189.53125 188.683594 C 188.128906 186.269531 184.390625 184.78125 182.960938 181.722656 C 181.039062 177.609375 181.476562 171.847656 182.1875 167.035156 C 182.875 162.390625 185.664062 156.011719 188.371094 153.113281 C 190.183594 151.171875 193.132812 150.820312 193.007812 148.476562 C 191.503906 148.5 189.140625 148.324219 187.597656 148.863281 Z M 189.53125 145.382812 C 196.878906 144.617188 205.046875 146.5625 208.460938 150.023438 C 217.839844 159.515625 211.449219 185.023438 200.734375 189.457031 C 199.125 190.121094 196.398438 190.355469 194.167969 191 C 188.132812 192.75 183.464844 191.839844 179.484375 188.296875 C 168.558594 178.5625 173.300781 156.222656 182.578125 148.089844 C 184.578125 146.332031 186.261719 145.722656 189.53125 145.382812 " fill-opacity="1" fill-rule="evenodd"/><path fill="#ffe000" d="M 193.007812 148.476562 C 193.132812 150.816406 190.1875 151.171875 188.371094 153.113281 C 185.664062 156.007812 182.875 162.390625 182.191406 167.03125 C 181.476562 171.84375 181.039062 177.609375 182.960938 181.722656 C 184.390625 184.777344 188.128906 186.269531 189.53125 188.679688 C 183.464844 188.296875 178.996094 184.03125 177.167969 178.628906 C 173.652344 168.242188 180.503906 151.328125 187.597656 148.863281 C 189.140625 148.324219 191.507812 148.5 193.007812 148.476562 " fill-opacity="1" fill-rule="evenodd"/><path fill="#c6cde5" d="M 81.351562 160.460938 C 85.695312 166.550781 87.945312 174.738281 91.394531 181.722656 C 90.699219 171.59375 87.949219 163.523438 81.734375 158.914062 C 81.613281 159.433594 81.1875 159.652344 81.351562 160.460938 Z M 91.007812 215.359375 C 85.265625 214.660156 80.507812 212.976562 75.167969 211.878906 C 74.339844 210.726562 78.207031 208.390625 79.03125 206.078125 C 83.621094 193.179688 78.222656 167.304688 72.851562 159.6875 C 71.808594 158.210938 69.988281 157.21875 68.601562 156.59375 C 73.292969 154.925781 77.699219 149.65625 82.894531 149.632812 C 87.660156 149.613281 93.609375 158.214844 96.417969 164.710938 C 103.15625 180.308594 104.867188 206.34375 91.007812 215.359375 " fill-opacity="1" fill-rule="evenodd"/><path fill="#fff18d" d="M 198.804688 150.023438 C 198.863281 150.011719 198.839844 149.613281 199.1875 149.636719 C 214.34375 150.574219 211.292969 188.84375 194.554688 186.363281 C 191.644531 185.929688 187.082031 182.441406 186.050781 179.789062 C 183.820312 174.050781 186.535156 162.316406 189.527344 157.367188 C 191.191406 154.625 195.804688 150.496094 198.804688 150.023438 " fill-opacity="1" fill-rule="evenodd"/><path fill="#8896ba" d="M 81.734375 158.914062 C 87.949219 163.519531 90.699219 171.59375 91.394531 181.722656 C 87.945312 174.738281 85.695312 166.550781 81.351562 160.457031 C 81.1875 159.652344 81.613281 159.433594 81.734375 158.914062 " fill-opacity="1" fill-rule="evenodd"/><path fill="#e4e8f4" d="M 62.417969 159.6875 C 70.113281 159.167969 71.464844 166.074219 73.621094 173.605469 C 75.980469 181.832031 78.898438 194.378906 75.554688 203.757812 C 74.617188 206.382812 71.148438 209.828125 68.988281 209.945312 C 61.390625 210.351562 57.609375 193.769531 57.007812 185.972656 C 56.132812 174.566406 57.300781 165.003906 62.417969 159.6875 " fill-opacity="1" fill-rule="nonzero"/><path fill="#ff9999" d="M 267.960938 189.070312 C 272.320312 191.070312 278.253906 188.761719 278.777344 184.429688 C 275.664062 181.363281 268.40625 184.636719 267.960938 189.070312 Z M 279.167969 180.5625 C 290.167969 188.359375 265.691406 198.515625 264.871094 188.683594 C 264.347656 182.414062 273.351562 181.601562 279.167969 180.5625 " fill-opacity="1" fill-rule="evenodd"/><path fill="#ff9999" d="M 278.78125 184.429688 C 278.257812 188.757812 272.320312 191.066406 267.960938 189.066406 C 268.410156 184.636719 275.664062 181.363281 278.78125 184.429688 " fill-opacity="1" fill-rule="evenodd"/><path fill="#000000" d="M 241.691406 195.640625 C 238.578125 199.976562 228.632812 201.242188 222.757812 200.277344 C 222.660156 195.777344 231.277344 195.507812 235.507812 193.707031 C 236.941406 193.097656 240.90625 194.605469 241.691406 195.640625 " fill-opacity="1" fill-rule="evenodd"/><path fill="#ff9999" d="M 165.574219 210.332031 C 172.652344 211.292969 184.734375 210.734375 186.4375 203.757812 C 177.785156 204 167.839844 204.980469 165.574219 210.332031 Z M 189.144531 202.210938 C 189.910156 213.3125 176.605469 213.621094 165.191406 213.8125 C 154.050781 205.679688 179.808594 197.8125 189.144531 202.210938 " fill-opacity="1" fill-rule="evenodd"/><path fill="#ff9999" d="M 186.4375 203.757812 C 184.734375 210.734375 172.652344 211.292969 165.574219 210.332031 C 167.839844 204.980469 177.785156 204 186.4375 203.757812 " fill-opacity="1" fill-rule="evenodd"/><path fill="#000000" d="M 249.414062 224.25 C 249.628906 223.304688 250.910156 223.425781 250.574219 221.929688 C 249.445312 221.730469 248.527344 223.703125 249.414062 224.25 Z M 251.734375 218.835938 C 255.777344 221.710938 252.570312 229.246094 246.710938 226.570312 C 245.53125 222.542969 247.210938 218.40625 251.734375 218.835938 " fill-opacity="1" fill-rule="evenodd"/><path fill="#fff18d" d="M 250.574219 221.929688 C 250.910156 223.425781 249.632812 223.304688 249.417969 224.25 C 248.527344 223.703125 249.445312 221.730469 250.574219 221.929688 " fill-opacity="1" fill-rule="evenodd"/><path fill="#000000" d="M 203.441406 233.140625 C 203.398438 232.394531 202 233.742188 201.507812 232.753906 C 200.628906 234.285156 203.875 234.46875 203.441406 233.140625 Z M 205.757812 231.59375 C 205.832031 233.089844 205.769531 234.445312 205.371094 235.460938 C 204.21875 236.546875 200.730469 236.546875 199.574219 235.460938 C 199.039062 234.234375 199.039062 232.046875 199.574219 230.820312 C 201.777344 229.917969 204.554688 229.808594 205.757812 231.59375 " fill-opacity="1" fill-rule="evenodd"/><path fill="#8e8664" d="M 137.757812 231.980469 C 138.171875 234.875 137.519531 239.617188 135.828125 241.644531 C 132.511719 241.613281 129.84375 240.933594 128.097656 239.328125 C 128.304688 239.015625 128.503906 238.699219 128.484375 238.167969 C 130.09375 237.476562 132.46875 238.96875 134.28125 239.328125 C 135.464844 236.902344 134.046875 231.878906 137.757812 231.980469 " fill-opacity="1" fill-rule="evenodd"/><path fill="#fff18d" d="M 201.507812 232.753906 C 202 233.742188 203.398438 232.394531 203.441406 233.140625 C 203.875 234.46875 200.628906 234.285156 201.507812 232.753906 " fill-opacity="1" fill-rule="evenodd"/><path fill="#dddddd" d="M 232.027344 240.875 C 232.359375 240.800781 232.394531 241.023438 232.414062 241.261719 C 233.308594 251.097656 233.5 261.742188 233.574219 272.1875 C 233.71875 291.375 234.664062 311.8125 230.097656 327.472656 C 221.90625 332.902344 210.78125 333.964844 199.960938 335.980469 C 194.707031 336.957031 189.363281 338.542969 184.121094 339.457031 C 175.679688 340.929688 168.226562 342.113281 160.167969 343.710938 C 161.800781 316.4375 160.449219 283.476562 158.621094 255.949219 C 161.65625 254.734375 166.441406 255.273438 169.824219 254.40625 C 168.980469 273.390625 171.09375 291.839844 172.144531 311.621094 C 172.539062 319.019531 171.75 331.21875 177.167969 333.269531 C 180.28125 334.453125 184.78125 333.992188 188.371094 333.660156 C 194.339844 333.101562 201.21875 330.730469 207.6875 329.019531 C 214.28125 327.273438 220.351562 324.597656 225.074219 322.832031 C 225.160156 321.371094 225.964844 320.632812 227.007812 320.128906 C 225.882812 294.191406 224.957031 268.050781 223.527344 242.417969 C 226.628906 242.171875 229.414062 241.605469 232.027344 240.875 " fill-opacity="1" fill-rule="evenodd"/><path fill="#c6cde5" d="M 208.460938 314.714844 C 209.128906 321.179688 222.015625 318.496094 218.121094 310.074219 C 214.128906 305.738281 207.957031 309.824219 208.460938 314.714844 Z M 209.234375 282.238281 C 208.695312 286.628906 212.808594 289.425781 217.347656 286.492188 C 221.855469 278.285156 210.152344 274.8125 209.234375 282.238281 Z M 220.824219 243.191406 C 224.039062 267.484375 222.367188 294.375 224.300781 319.742188 C 215.808594 323.085938 205.8125 326.617188 195.710938 329.40625 C 190.496094 330.84375 183.054688 332.03125 176.78125 329.792969 C 174.4375 305.203125 172.675781 280.035156 171.757812 254.019531 C 188.605469 250.902344 204.941406 247.273438 220.824219 243.191406 " fill-opacity="1" fill-rule="evenodd"/><path fill="#e4e8f4" d="M 308.527344 245.898438 C 308.632812 250.511719 308.492188 254.882812 308.144531 259.042969 C 300.324219 258.296875 296.738281 271.75 306.984375 271.027344 C 306.898438 274.679688 306.714844 278.234375 305.824219 281.082031 C 297.90625 284.03125 291.730469 279.09375 289.597656 273.734375 C 290.773438 268.097656 288.15625 261.597656 289.597656 256.335938 C 290.71875 252.25 300.65625 245.386719 308.527344 245.898438 " fill-opacity="1" fill-rule="evenodd"/><path fill="#8896ba" d="M 237.050781 249.378906 C 242.101562 249.480469 247.648438 249.085938 252.121094 249.765625 C 250.226562 253.609375 246.070312 265.765625 253.664062 264.84375 C 254.398438 263.269531 253.039062 262.675781 252.894531 260.976562 C 252.570312 257.246094 254.546875 253.304688 255.210938 250.152344 C 261.527344 250.535156 267.265625 251.492188 272.597656 252.859375 C 272.246094 257.082031 268.621094 263.117188 271.4375 266.777344 C 274.992188 264.535156 274.234375 257.976562 275.300781 253.246094 C 280.011719 253.816406 282.925781 256.183594 286.507812 257.882812 C 286.820312 262.019531 285.558594 265.46875 286.507812 269.097656 C 276.882812 271.476562 263.769531 274.722656 251.734375 273.734375 C 246.742188 273.324219 242.621094 270.722656 238.210938 271.414062 C 237.59375 264.300781 237.421875 256.742188 237.050781 249.378906 " fill-opacity="1" fill-rule="evenodd"/><path fill="#8896ba" d="M 99.894531 313.941406 C 96.859375 309.066406 90.160156 303.824219 91.394531 296.929688 C 92.257812 292.128906 101.585938 288.367188 104.917969 285.332031 C 106.589844 290.488281 108.09375 295.816406 112.644531 298.089844 C 114.257812 292.554688 108.199219 288.148438 106.851562 283.011719 C 111.03125 278.820312 115.421875 274.835938 119.210938 270.253906 C 120.804688 273.136719 122.59375 276.265625 124.234375 279.535156 C 125.714844 282.476562 126.332031 287.09375 130.03125 288.039062 C 131.027344 280.441406 124.898438 273.351562 121.53125 267.550781 C 124.011719 262.042969 130.414062 260.460938 131.964844 254.019531 C 134.988281 253.382812 138.496094 255.84375 139.691406 257.496094 C 144.976562 264.808594 144.769531 281.421875 139.304688 287.652344 C 134.46875 293.160156 127.136719 297.753906 119.984375 302.730469 C 112.929688 307.636719 108.515625 312.257812 99.894531 313.941406 " fill-opacity="1" fill-rule="evenodd"/><path fill="#c1bfb6" d="M 142.007812 255.175781 C 146.253906 254.15625 150.082031 256.890625 155.53125 255.949219 C 155.945312 285.316406 157.652344 315.410156 158.234375 343.324219 C 150.132812 342.023438 142.414062 340.339844 134.28125 339.070312 C 132.511719 326.535156 133.351562 311.390625 131.578125 298.863281 C 136.007812 294.121094 144.890625 289.761719 147.03125 281.851562 C 149.621094 272.285156 146.03125 261.367188 142.007812 255.175781 " fill-opacity="1" fill-rule="evenodd"/><path fill="#000000" d="M 212.324219 284.171875 C 213.476562 284.683594 214.285156 284.570312 215.03125 283.785156 C 215.328125 281.941406 214.484375 281.238281 213.484375 280.691406 C 212.875 281.632812 212.042969 282.34375 212.324219 284.171875 Z M 217.347656 286.492188 C 212.804688 289.425781 208.691406 286.628906 209.234375 282.242188 C 210.152344 274.8125 221.855469 278.285156 217.347656 286.492188 " fill-opacity="1" fill-rule="evenodd"/><path fill="#fff18d" d="M 213.484375 280.691406 C 214.484375 281.238281 215.328125 281.941406 215.03125 283.785156 C 214.285156 284.570312 213.476562 284.683594 212.324219 284.171875 C 212.042969 282.34375 212.875 281.632812 213.484375 280.691406 " fill-opacity="1" fill-rule="evenodd"/><path fill="#e4e8f4" d="M 87.917969 299.25 C 89.367188 306.691406 93.195312 311.753906 97.191406 316.648438 C 96.765625 323.570312 95.152344 329.300781 89.078125 330.566406 C 85.898438 329.105469 84.679688 325.6875 82.121094 323.605469 C 84.070312 321.027344 87.875 321.609375 88.304688 318.195312 C 88.921875 313.289062 82.039062 308.921875 75.941406 311.621094 C 74.128906 308.410156 71.8125 305.703125 70.53125 301.957031 C 74.625 299.566406 81.652344 298.195312 87.917969 299.25 " fill-opacity="1" fill-rule="evenodd"/><path fill="#000000" d="M 212.324219 315.101562 C 214.261719 315.105469 215.632812 314.542969 215.417969 312.394531 C 213.859375 309.855469 210.804688 312.613281 212.324219 315.101562 Z M 218.121094 310.074219 C 222.015625 318.496094 209.128906 321.179688 208.460938 314.714844 C 207.957031 309.824219 214.128906 305.738281 218.121094 310.074219 " fill-opacity="1" fill-rule="evenodd"/><path fill="#fff18d" d="M 215.417969 312.394531 C 215.632812 314.542969 214.261719 315.105469 212.324219 315.101562 C 210.804688 312.613281 213.859375 309.855469 215.417969 312.394531 " fill-opacity="1" fill-rule="evenodd"/><path fill="#8896ba" d="M 219.28125 336.363281 C 221.101562 339.269531 219.195312 345.003906 219.28125 348.734375 C 217.582031 348.308594 213.113281 348.152344 213.097656 350.667969 C 213.203125 352.882812 217.011719 351.394531 218.894531 351.828125 C 218.964844 355.121094 218.382812 357.757812 216.960938 359.558594 C 214 359.558594 211.039062 359.558594 208.078125 359.558594 C 207.3125 355.296875 206.636719 350.949219 206.144531 346.414062 C 208.636719 346.460938 211.28125 346.65625 212.324219 345.257812 C 212.328125 342.953125 207.605469 343.4375 206.53125 344.484375 C 205.871094 343.082031 205.714844 341.175781 205.757812 339.070312 C 209.992188 337.894531 214.914062 337.40625 219.28125 336.363281 " fill-opacity="1" fill-rule="evenodd"/><path fill="#8896ba" d="M 149.347656 346.03125 C 154.410156 346.632812 159.710938 347.003906 165.574219 346.804688 C 164.5625 350.425781 164.683594 355.1875 163.644531 358.789062 C 161.21875 359.066406 157.53125 358.085938 157.460938 360.71875 C 157.578125 362.945312 161.496094 361.566406 162.871094 361.492188 C 162.910156 364.882812 161.300781 366.621094 160.941406 369.613281 C 158.488281 369.488281 155.460938 369.9375 153.597656 369.226562 C 152 364.769531 151.046875 359.667969 150.121094 354.535156 C 153.136719 354.328125 157.363281 355.335938 158.234375 352.988281 C 157.730469 349.824219 152.613281 351.824219 149.734375 351.828125 C 150.035156 349.46875 149.230469 348.210938 149.347656 346.03125 " fill-opacity="1" fill-rule="evenodd"/></svg>